<svg xmlns="http://www.w3.org/2000/svg" width="200" height="200" viewBox="0 0 200 200">
  <g fill="none" fill-rule="evenodd">
    <polygon fill="#7960C2" points="99.823 0 177.867 37.584 197.142 122.035 143.134 189.76 56.511 189.76 2.503 122.035 21.778 37.584" transform="matrix(1 0 0 -1 0 199.645)"/>
    <g stroke="#FFF" stroke-linecap="round" stroke-linejoin="round" stroke-width="6.25" transform="translate(53 56)">
      <path d="M11.6291667 60.8333333C10.2708333 57.2958333 9.55 53.5458333 9.5 49.7583333 9.5 32.7708333 26.2875 19 47 19M65.75 81.7916667C60.2291667 85.5916667 53.7041667 87.6666667 47 87.75 40.2958333 87.6666667 33.7708333 85.5916667 28.25 81.7916667M82.3708333 60.8333333C83.7291667 57.2958333 84.45 53.5458333 84.5 49.7583333 84.5 32.7708333 67.7125 19 47 19M56.375 61.1875C55.325 65.5791667 51.5083333 68.7583333 47 69 42.4916667 68.7583333 38.675 65.5791667 37.625 61.1875 37.625 58.5833333 41.8208333 56.5 47 56.5 52.1791667 56.5 56.375 58.5833333 56.375 61.1875zM37.625 75.25C41.6208333 74.9333333 45.1708333 72.5666667 47 69 48.8291667 72.5666667 52.3791667 74.9333333 56.375 75.25M29.8125 44C30.675 44 31.375 44.7 31.375 45.5625M28.25 45.5625C28.25 44.7 28.95 44 29.8125 44M29.8125 47.125C28.95 47.125 28.25 46.425 28.25 45.5625M31.375 45.5625C31.375 46.425 30.675 47.125 29.8125 47.125M64.1875 44C65.05 44 65.75 44.7 65.75 45.5625M62.625 45.5625C62.625 44.7 63.325 44 64.1875 44M64.1875 47.125C63.325 47.125 62.625 46.425 62.625 45.5625M65.75 45.5625C65.75 46.425 65.05 47.125 64.1875 47.125M47 19L47 34.625M34.5 22.125L34.5 31.5M59.5 22.125L59.5 31.5"/>
      <path d="M9.5 49.7541667L9.5 7.00416667C9.5 3.55416667 12.3.754166667 15.75.754166667 17.1666667.754166667 18.5458333 1.2375 19.6541667 2.125L41.2041667 19.3666667M84.5 49.7541667L84.5 7.00416667C84.5 3.55416667 81.7.754166667 78.25.754166667 76.8333333.754166667 75.4541667 1.2375 74.3458333 2.125L52.7958333 19.3666667M75.125 59.625L93.875 62.75M72 69L87.625 78.375M18.875 59.625L.125 62.75M22 69L6.375 78.375"/>
    </g>
  </g>
</svg>
