<svg xmlns="http://www.w3.org/2000/svg" width="200" height="200" viewBox="0 0 200 200">
  <g fill="none" fill-rule="evenodd">
    <polygon fill="#7960C2" points="99.823 0 177.867 37.584 197.142 122.035 143.134 189.76 56.511 189.76 2.503 122.035 21.778 37.584" transform="matrix(1 0 0 -1 0 199.645)"/>
    <path fill="#FFF" fill-rule="nonzero" d="M30.616 12.328L13.088 1.8C11.1523606.642433469 8.73107822.66812137 6.82043348 1.86649395 4.90978875 3.06486653 3.83256287 5.23347269 4.032 7.48L9.2 39.612C13.3192804 28.5068474 20.8071747 18.9672644 30.616 12.328L30.616 12.328zM86.82 39.608L92 7.272C92.1224941 5.0531704 91.0086063 2.94834874 89.1050782 1.80170565 87.2015501.655062562 84.8201598.654406274 82.916 1.8L65.384 12.32C75.200917 18.9572222 82.6961322 28.4986214 86.82 39.608zM80.476 68.004C81.5566714 66.1367825 82.4056042 64.1447456 83.004 62.072L92 62.072C94.209139 62.072 96 60.281139 96 58.072 96 55.862861 94.209139 54.072 92 54.072L84 54.072C83.392 37.5 67.516 13.048 48 13.048 28.484 13.048 12.628 37.5 12 54.072L4 54.072C1.790861 54.072 0 55.862861 0 58.072 0 60.281139 1.790861 62.072 4 62.072L12.996 62.072C13.5943958 64.1447456 14.4433286 66.1367825 15.524 68.004L5.408 72.404C3.38282696 73.2838246 2.45360744 75.6382054 3.332 77.664 4.23753223 79.6623696 6.56573319 80.5812565 8.592 79.74L20.592 74.516C28.0185464 81.4448625 37.8445626 85.2206799 48 85.048 58.1485596 85.2154743 67.9664604 81.4400204 75.388 74.516L87.388 79.74C89.4137805 80.6236556 91.7723444 79.6977805 92.656 77.672 93.5396556 75.6462195 92.6137805 73.2876556 90.588 72.404L80.476 68.004zM61 32.048C63.7614237 32.048 66 34.2865763 66 37.048 66 39.8094237 63.7614237 42.048 61 42.048 58.2385763 42.048 56 39.8094237 56 37.048 56 34.2865763 58.2385763 32.048 61 32.048L61 32.048zM41 38.048C41 40.8094237 38.7614237 43.048 36 43.048 33.2385763 43.048 31 40.8094237 31 38.048 31 35.2865763 33.2385763 33.048 36 33.048 37.3260824 33.048 38.597852 33.5747842 39.5355339 34.5124661 40.4732158 35.450148 41 36.7219176 41 38.048L41 38.048zM48 65.268C44.4141951 69.5742459 38.488674 71.1267421 33.252 69.132 31.7470192 68.4987854 31.0247843 66.7782628 31.6268588 65.2605559 32.2289334 63.7428491 33.9342113 62.9853211 35.464 63.556 41.996 66.156 45.228 58.576 45.04 58.504 42.5239094 57.7020724 40.6115765 55.6410025 40 53.072 40 50.86 43.58 49.072 48 49.072 52.42 49.072 56 50.86 56 53.072 55.387442 55.6454396 53.4697539 57.7088903 50.948 58.508 50.76 58.58 54.06 66.132 60.548 63.556 62.0777887 62.9853211 63.7830666 63.7428491 64.3851412 65.2605559 64.9872157 66.7782628 64.2649808 68.4987854 62.76 69.132 57.5236576 71.1980528 51.5522904 69.6348168 48 65.268z" transform="translate(52 57)"/>
  </g>
</svg>
